<?xml version="1.0" standalone="no"?><!DOCTYPE svg PUBLIC "-//W3C//DTD SVG 1.1//EN" "http://www.w3.org/Graphics/SVG/1.1/DTD/svg11.dtd"><svg t="1582684894431" class="icon" viewBox="0 0 1024 1024" version="1.1" xmlns="http://www.w3.org/2000/svg" p-id="2715" xmlns:xlink="http://www.w3.org/1999/xlink" width="200" height="200"><defs><style type="text/css"></style></defs><path d="M485.100393 772.307716l92.036671 84.922726a96.038265 96.038265 0 0 1-18.674107 154.728316 96.038265 96.038265 0 0 1-111.600021-13.338648l-138.277317-127.606399a88.92432 88.92432 0 0 0-101.373725-12.004783 88.92432 88.92432 0 0 1-120.937074-34.680485L22.693931 708.282206a133.38648 133.38648 0 0 1 52.020727-181.405612l293.005633-161.842262A133.38648 133.38648 0 0 0 419.741018 311.235119L574.469335 34.235863a66.69324 66.69324 0 0 1 116.490858 0l318.349065 575.78497a66.69324 66.69324 0 0 1-67.582483 98.261373l-325.46301-44.46216a133.38648 133.38648 0 0 0-83.144239 15.561756l-40.015944 22.23108a44.46216 44.46216 0 0 0-8.003189 70.694834z" p-id="2716"></path></svg>
