<?xml version="1.0" standalone="no"?><!DOCTYPE svg PUBLIC "-//W3C//DTD SVG 1.1//EN" "http://www.w3.org/Graphics/SVG/1.1/DTD/svg11.dtd"><svg t="1582684358397" class="icon" viewBox="0 0 1024 1024" version="1.1" xmlns="http://www.w3.org/2000/svg" p-id="2125" xmlns:xlink="http://www.w3.org/1999/xlink" width="200" height="200"><defs><style type="text/css"></style></defs><path d="M825.6 690.9c-24.7 0-44.8-20.1-44.8-44.8v-224c0-159.1-106.1-247.4-223.9-265.2v-48.3c0-24.7-20-44.8-44.8-44.8-24.7 0-44.8 20-44.8 44.8V157c-117.9 17.8-223.9 106-223.9 265.2v223.9c0 24.7-20 44.8-44.8 44.8-24.7 0-44.8 20-44.8 44.8 0 24.7 20.1 44.8 44.8 44.8h179.1v44.8c0 74.2 60.2 134.4 134.4 134.4s134.4-60.2 134.4-134.4v-44.8h179.1c24.7 0 44.8-20.1 44.8-44.8 0-24.8-20.1-44.8-44.8-44.8zM556.9 825.2c0 24.7-20 44.8-44.8 44.8-24.7 0-44.8-20.1-44.8-44.8v-44.8h89.6v44.8z m134.3-134.3H333V422.1C333 302.7 422.5 243 512.1 243h0.1c89.6 0 179.1 59.7 179.1 179.1v268.8z" p-id="2126" ></path></svg>
